<?xml version="1.0" encoding="utf-8"?>
<!-- Generator: Adobe Illustrator 26.3.1, SVG Export Plug-In . SVG Version: 6.00 Build 0)  -->
<svg version="1.1" id="レイヤー_1" xmlns="http://www.w3.org/2000/svg" xmlns:xlink="http://www.w3.org/1999/xlink" x="0px"
	 y="0px" viewBox="0 0 2465.6 2160" style="enable-background:new 0 0 2465.6 2160;" xml:space="preserve">
<style type="text/css">
	.st0{fill:#FFFFFF;}
</style>
<g>
	<g>
		<g>
			<path class="st0" d="M770.7,1071.7l-117.4,674.4l-1.4,7.9h8h120.2l-22.4,128.6H636h-5.7l-1,5.6l-40.5,230H429.9l39.4-227.6
				l1.4-7.9h-8H26l14-107.1l557.7-703.8H770.7 M546.8,1323.1l-327.7,420.1l-8.5,10.9h13.9h263h5.6l1-5.5l82.3-445l5.6-30.4
				l-17.8,25.2L546.8,1323.1 M778.8,1065H594.5L33.5,1772.8l-15.3,116.6h444.4L421.8,2125h172.7l41.5-235.6h127.5l24.8-142.2H660
				L778.8,1065L778.8,1065z M569.7,1302.3l-82.3,445h-263l327.8-420.2L569.7,1302.3L569.7,1302.3z"/>
			<path class="st0" d="M1340.3,1056.7L1340.3,1056.7c3.3,0,6.7,0,10.1,0.1c44.5,0.9,84.2,9.1,117.8,24.2
				c33.5,15,62.1,37.4,84.9,66.5c23,29.2,40.3,65.2,51.5,106.9c11.3,41.9,16.6,90.8,15.9,145.3c-0.5,35.9-2.9,71.9-7.2,107
				l-28.4,184.2c-12.3,75.2-30,141.6-52.7,197.5c-22.6,55.6-50.8,102.4-83.7,138.9c-31.8,35.2-68.7,62-109.8,79.5
				c-41.2,17.6-87.7,26.5-138.4,26.5c-3.3,0-6.6,0-10-0.1c-44.8-0.9-84.6-9.2-118.3-24.6c-33.5-15.3-62.1-38.1-84.9-67.8
				c-22.9-29.9-40.2-66.3-51.3-108.3c-11.2-42.2-16.5-91.3-15.8-145.8c0.5-35.5,2.9-71.5,7.2-107l28.4-189.3
				c11.7-73.4,29.2-138.4,51.8-193.2c22.5-54.5,50.8-100.3,84.1-136.2c32.1-34.6,69.2-60.9,110.4-78.2
				C1243.4,1065.5,1289.9,1056.7,1340.3,1056.7 M1074.2,1823.6c0,117.4,42.4,178.8,125.9,182.3c3.9,0.2,7.7,0.3,11.5,0.3
				c53.7,0,98.4-22.5,133.1-67c34-43.6,59-109.6,74.4-196.2l0-0.1l0-0.1l39.3-263.1l0-0.1l0-0.1c6.3-55.4,9.5-95.4,9.5-118.8v-0.1
				l0-0.1c-2.5-113.5-45.1-172.8-126.7-176.4c-3.1-0.1-6.1-0.2-9.1-0.2c-57.1,0-104,22.8-139.3,67.6
				c-36.5,46.4-62.5,120.8-77.1,221.1l-33.5,231l0,0.1l0,0.1C1076.5,1753.9,1073.8,1794.2,1074.2,1823.6 M1340.3,1050
				c-103.2,0-187.7,35.5-253.5,106.5c-68,73.3-113.9,184.3-137.7,332.9l-28.4,189.4c-4.4,36-6.8,71.9-7.3,107.8
				c-1.5,110.7,21.4,196.8,68.5,258.3c47.1,61.4,116.6,93.1,208.4,95.1c3.4,0.1,6.8,0.1,10.1,0.1c103.6,0,188-36.1,253.2-108.3
				c67.3-74.5,113.3-187.8,138.1-339.9l28.4-184.3c4.4-35.5,6.8-71.4,7.3-107.8c1.4-110.7-21.5-196.2-68.9-256.4
				c-47.3-60.2-116.7-91.3-208-93.2C1347.1,1050,1343.7,1050,1340.3,1050L1340.3,1050z M1211.7,1999.5c-3.7,0-7.4-0.1-11.2-0.3
				c-79.7-3.4-119.5-61.9-119.5-175.6c-0.5-29.2,2.2-68.8,8-118.8l33.5-231c14.6-99.6,39.8-172.2,75.8-217.9
				c34.1-43.4,78.8-65.1,134-65.1c2.9,0,5.9,0.1,8.8,0.2c77.7,3.4,117.8,60,120.2,169.8c0,23.3-3.2,62.7-9.5,118.1l-39.3,263.1
				C1382,1913.6,1315.1,1999.5,1211.7,1999.5L1211.7,1999.5z"/>
			<path class="st0" d="M2429.9,1071.7l-117.4,674.4l-1.4,7.9h8h120.2l-22.4,128.6h-121.8h-5.7l-1,5.6l-40.5,230H2089l39.4-227.6
				l1.4-7.9h-8h-436.7l14-107.1l557.7-703.8H2429.9 M2205.9,1323.1l-327.7,420.1l-8.5,10.9h13.9h263h5.6l1-5.5l82.3-445l5.6-30.4
				l-17.8,25.2L2205.9,1323.1 M2437.9,1065h-184.3l-560.9,707.9l-15.3,116.6h444.4L2081,2125h172.7l41.5-235.6h127.5l24.8-142.2
				h-128.2L2437.9,1065L2437.9,1065z M2228.8,1302.3l-82.3,445h-263l327.8-420.2L2228.8,1302.3L2228.8,1302.3z"/>
		</g>
	</g>
	<g>
		<g>
			<path class="st0" d="M770.7,41.7L653.4,716.1l-1.4,7.9h8h120.2l-22.4,128.6H636h-5.7l-1,5.6l-40.5,230H429.9l39.4-227.6l1.4-7.9
				h-8H26l14-107.1L597.7,41.7H770.7 M546.8,293L219.1,713.1l-8.5,10.9h13.9h263h5.6l1-5.5l82.3-445l5.6-30.4l-17.8,25.2L546.8,293
				 M778.8,35H594.5L33.5,742.8L18.2,859.5h444.4L421.8,1095h172.7L636,859.5h127.5l24.8-142.2H660L778.8,35L778.8,35z M569.7,272.3
				l-82.3,445h-263l327.8-420.2L569.7,272.3L569.7,272.3z"/>
			<path class="st0" d="M1340.3,26.7L1340.3,26.7c3.3,0,6.7,0,10.1,0.1c44.5,0.9,84.2,9.1,117.8,24.2c33.5,15,62.1,37.4,84.9,66.5
				c23,29.2,40.3,65.2,51.5,106.9c11.3,41.9,16.6,90.8,15.9,145.3c-0.5,35.9-2.9,71.9-7.2,107L1585,660.8
				c-12.3,75.2-30,141.6-52.7,197.5c-22.6,55.6-50.8,102.4-83.7,138.9c-31.8,35.2-68.7,62-109.8,79.5
				c-41.2,17.6-87.7,26.5-138.4,26.5c-3.3,0-6.6,0-10-0.1c-44.8-0.9-84.6-9.2-118.3-24.6c-33.5-15.3-62.1-38.1-84.9-67.8
				c-22.9-29.9-40.2-66.3-51.3-108.3c-11.2-42.2-16.5-91.3-15.8-145.8c0.5-35.5,2.9-71.5,7.2-107l28.4-189.3
				C967.6,387,985,322,1007.7,267.3c22.5-54.5,50.8-100.3,84.1-136.2c32.1-34.6,69.2-60.9,110.4-78.2
				C1243.4,35.5,1289.9,26.7,1340.3,26.7 M1074.2,793.5c0,117.4,42.4,178.8,125.9,182.3c3.9,0.2,7.7,0.3,11.5,0.3
				c53.7,0,98.4-22.5,133.1-67c34-43.6,59-109.6,74.4-196.2l0-0.1l0-0.1l39.3-263.1l0-0.1l0-0.1c6.3-55.4,9.5-95.4,9.5-118.8v-0.1
				l0-0.1c-2.5-113.5-45.1-172.8-126.7-176.4c-3.1-0.1-6.1-0.2-9.1-0.2c-57.1,0-104,22.8-139.3,67.6
				c-36.5,46.4-62.5,120.8-77.1,221.1l-33.5,231l0,0.1l0,0.1C1076.5,723.9,1073.8,764.2,1074.2,793.5 M1340.3,20
				c-103.2,0-187.7,35.5-253.5,106.5c-68,73.3-113.9,184.3-137.7,332.9l-28.4,189.4c-4.4,36-6.8,71.9-7.3,107.8
				c-1.5,110.7,21.4,196.8,68.5,258.3s116.6,93.1,208.4,95.1c3.4,0.1,6.8,0.1,10.1,0.1c103.6,0,188-36.1,253.2-108.3
				c67.3-74.5,113.3-187.8,138.1-339.9l28.4-184.3c4.4-35.5,6.8-71.4,7.3-107.8c1.4-110.7-21.5-196.2-68.9-256.4
				c-47.3-60.2-116.7-91.3-208-93.2C1347.1,20,1343.7,20,1340.3,20L1340.3,20z M1211.7,969.4c-3.7,0-7.4-0.1-11.2-0.3
				c-79.7-3.4-119.5-61.9-119.5-175.6c-0.5-29.2,2.2-68.8,8-118.8l33.5-231c14.6-99.6,39.8-172.2,75.8-217.9
				c34.1-43.4,78.8-65.1,134-65.1c2.9,0,5.9,0.1,8.8,0.2c77.7,3.4,117.8,60,120.2,169.8c0,23.3-3.2,62.7-9.5,118.1l-39.3,263.1
				C1382,883.6,1315.1,969.4,1211.7,969.4L1211.7,969.4z"/>
			<path class="st0" d="M2429.9,41.7l-117.4,674.4l-1.4,7.9h8h120.2l-22.4,128.6h-121.8h-5.7l-1,5.6l-40.5,230H2089l39.4-227.6
				l1.4-7.9h-8h-436.7l14-107.1l557.7-703.8H2429.9 M2205.9,293l-327.7,420.1l-8.5,10.9h13.9h263h5.6l1-5.5l82.3-445l5.6-30.4
				l-17.8,25.2L2205.9,293 M2437.9,35h-184.3l-560.9,707.9l-15.3,116.6h444.4L2081,1095h172.7l41.5-235.6h127.5l24.8-142.2h-128.2
				L2437.9,35L2437.9,35z M2228.8,272.3l-82.3,445h-263l327.8-420.2L2228.8,272.3L2228.8,272.3z"/>
		</g>
	</g>
	<g>
		<path class="st0" d="M660,1232.3h128.2l-24.8,142.2H636L594.5,1610H421.8l40.8-235.6H18.2l15.3-116.6L594.5,550h184.3L660,1232.3z
			 M224.4,1232.3h263l82.3-445l-17.5,24.8L224.4,1232.3z"/>
		<path class="st0" d="M1190.3,1624.9c-91.8-1.9-161.3-33.6-208.4-95.1s-69.9-147.5-68.5-258.3c0.5-35.9,2.9-71.9,7.3-107.8
			l28.4-189.4c23.8-148.6,69.7-259.6,137.7-332.9c68-73.3,155.9-108.8,263.7-106.4c91.3,1.9,160.6,33,208,93.2
			c47.3,60.2,70.3,145.7,68.9,256.4c-0.5,36.4-2.9,72.4-7.3,107.8l-28.4,184.3c-24.8,152-70.8,265.3-138.1,339.9
			C1386.3,1591.3,1298.6,1627.3,1190.3,1624.9z M1451.8,963.8c6.3-55.4,9.5-94.7,9.5-118.1c-2.4-109.8-42.5-166.4-120.2-169.8
			c-59.3-2.4-106.8,19.2-142.8,64.9c-35.9,45.7-61.2,118.3-75.8,217.9l-33.5,231c-5.8,50.1-8.5,89.7-8,118.8
			c0,113.7,39.8,172.3,119.5,175.6c109.7,6.3,180.4-79.4,212-257.3L1451.8,963.8z"/>
		<path class="st0" d="M2319.2,1232.3h128.2l-24.8,142.2h-127.5l-41.5,235.6H2081l40.8-235.6h-444.4l15.3-116.6L2253.6,550h184.3
			L2319.2,1232.3z M1883.5,1232.3h263l82.3-445l-17.5,24.8L1883.5,1232.3z"/>
	</g>
</g>
<g>
</g>
<g>
</g>
<g>
</g>
<g>
</g>
<g>
</g>
<g>
</g>
<g>
</g>
<g>
</g>
<g>
</g>
<g>
</g>
<g>
</g>
<g>
</g>
<g>
</g>
<g>
</g>
<g>
</g>
</svg>
