<?xml version="1.0" encoding="utf-8"?>
<!-- Generator: Adobe Illustrator 26.3.1, SVG Export Plug-In . SVG Version: 6.00 Build 0)  -->
<svg version="1.1" id="レイヤー_1" xmlns="http://www.w3.org/2000/svg" xmlns:xlink="http://www.w3.org/1999/xlink" x="0px"
	 y="0px" viewBox="0 0 580 160" style="enable-background:new 0 0 580 160;" xml:space="preserve">
<style type="text/css">
	.st0{fill:#FFFFFF;}
</style>
<g>
	<g>
		<path class="st0" d="M55.6,83.5c0,1.8-1.7,3.1-3.3,3.1c-1.1,0-2.1-0.7-2.1-2.5v-0.5c1.1-12.8,1.6-29,1.6-39.2v-9.1
			c-8.4,11.5-15,15.8-15.6,15.8c0,0-0.1,0-0.1-0.1c0-0.2,0.5-0.8,0.7-1c6.7-6.8,14.6-19.2,20.9-32.4c0.9-2,1.4-4.7,1.8-6.2
			c0.1-0.5,0-0.6,0.2-0.6c0.5,0,6.7,3.1,7.5,3.9c0.3,0.3,0.5,0.6,0.5,0.9c0,0.7-0.6,1.4-2.6,1.9c-1.4,0.4-1.6,0.5-2.7,2.4
			c-2.5,4.1-5,7.8-7.4,11.4c1.2,0.3,2.6,0.5,3.3,0.6c1.2,0.4,1.7,0.8,1.7,1.2s-0.7,0.9-1.7,1.4c-2.4,1-2.5,0.8-2.5,4.3
			c-0.2,6.9-0.3,14.3-0.3,22.1C55.4,68,55.4,75.5,55.6,83.5L55.6,83.5L55.6,83.5z M117.5,79.7c0.5,0,0.6,0,0.6,0.2
			c0,0.6-5.5,2.7-7.6,5.2c-0.4,0.4-0.7,0.5-1.1,0.5c-1.2,0-12.4-1-21.9-9.7C75.3,85.5,57.2,87.3,57,87.3c-0.7,0-0.9-0.1-0.9-0.3
			c0-0.3,0.8-0.8,2.3-1.1c9.7-2.5,19-5.9,26.5-12.6c-4-4.2-7.1-9.2-9.3-15.1c-1.8,0.1-3.9,0.3-6.4,0.5h-0.1c-1,0-3.4-3-3.4-3.8
			c6.1,0.8,12.2,0.9,16.2,0.9l12.6,0.1c0.5,0,0.9,0,1.4-0.5c0.5-0.5,1.4-1.4,1.9-1.4c0.2-0.1,0.3-0.1,0.5-0.1c0.2,0,0.4,0,0.5,0.1
			c0.2,0,5.4,2.6,5.4,4.2c0,0.7-0.7,1.4-2.4,1.8c-1.4,0.4-1.3,0.8-2.2,2.2c-3,4.8-6.2,8.7-9.7,11.7c5.8,3.7,13.1,6,22.7,6
			c1.4,0,3-0.1,4.6-0.2H117.5z M67.3,47.1c-0.5,5.8-3.5,10.2-6.8,10.2c-1.4,0-2.4-1-2.4-2.4c0-0.9,0.5-2.1,1.4-3.1
			c4.6-4.3,5.6-6.7,6.2-11.3c0.1-0.5,0.3-0.6,0.5-0.6c0.2,0,0.8,0.9,1,5.1h39c0.4,0,1-0.4,1.4-0.7c0.2-0.2,1.1-1.2,2.1-1.2
			c0.3,0,5.9,3,5.9,5.6c0,0.9-0.8,1.8-2.8,1.9c-2.9,0.2-5.9,3.5-8.9,5.1c-0.4,0.2-0.5,0.3-0.7,0.3c-0.1,0-0.1-0.1-0.1-0.1
			c0-0.2,0.1-0.4,0.3-0.7c1.5-2.8,3.1-7.4,3.1-7.5c0-0.4-0.2-0.5-0.5-0.5H67.3V47.1z M104.1,38c0,2.3-2.5,2.5-2.6,2.5
			c-0.9,0-1.8-0.6-1.8-1.9v-0.2c0-0.4,0.1-1,0.1-2H94c-9.4,0-12,0.3-22.6,0.8h-0.1c-1.7,0-4.2-3.4-4.2-4.2
			c12.3,1.1,17.4,1.3,26.6,1.3h5.9c0-2.2,0.1-4.8,0.1-7.3h-5c-9.4,0-10.7,0.2-21.2,0.7h-0.1c-1.7,0-4.2-3.2-4.2-4
			c12.3,1.1,16,1.1,25.3,1.1h5.1c0-6.9,0-6.9-1-6.9h-5c-2.7,0-13.5,0-21.8,0.7h-0.2c-1.5,0-3.7-2.8-3.7-3.8
			c9.2,0.9,22.7,0.9,25.6,0.9h4.2c0.5,0,0.8-0.1,1.1-0.5c0.5-0.6,0.9-1.5,1.4-1.8c0.3-0.2,0.5-0.5,0.9-0.5c0.5,0,5.9,3,5.9,4.8
			c0,1.1-1.4,1.7-2.3,2.2c-0.9,0.5-1.4,0.7-1.4,4.2C103.4,27.9,104,35.8,104.1,38L104.1,38z M81.1,58c-1.4,0-2.6,0-4.2,0.1
			c2.1,5,5.2,9.6,9.7,13.4c5.1-5,9.2-12.8,9.2-13.3c0-0.2-0.2-0.3-0.6-0.3L81.1,58L81.1,58z"/>
		<path class="st0" d="M203.1,81.1c0,0.5-5.9,2.4-8.6,4.6c-0.4,0.3-0.6,0.5-0.9,0.5c-3.8,0-22.4-4.9-31.1-23.2
			c-0.6,0.3-1,0.6-2.1,1.4c-1.8,1.3-3.6,2.5-5.4,3.6c0.8,0.3,1.1,0.5,1.1,0.8c0,0.5-0.6,0.9-1.3,1.2c-0.5,0.2-0.6,0.6-0.6,1.3
			c0,2.3-0.1,5.9-0.1,8.5c6.3-1.1,12.5-2.4,16.9-3.9h0.3c0.3,0,0.5,0.2,0.5,0.4c0,1.2-24.4,8.8-30.8,10.5c-0.8,0.2-1.3,0.8-1.9,0.8
			c-0.8,0-4.2-5.2-4.2-6.2c0-0.1,0.1-0.1,0.2-0.1c0.1,0,0.4,0.1,0.6,0.1c1,0.1,2.8,0.3,4.8,0.3c0.5,0,1.4,0,10.2-1.2v-4
			c0-4.3,0-4.9-0.1-5.9c-13.6,7.2-25.6,8.8-27.7,8.8c-0.8,0-1.2-0.2-1.2-0.4c0-0.3,0.5-0.5,1.6-0.8c8.6-1.8,22.8-6.5,34.2-16.2
			l0.6-0.6h-7.3c-4.8,0-12.6,0.3-20.3,1h-0.1c-1.6,0-3.8-3.4-3.8-4.5c8.9,1.1,19.6,1.4,24.6,1.4h10c-0.1-3.1-0.3-5.8-0.8-7.9
			c-0.1-0.3-0.1-0.5-0.1-0.5c0-0.1,0-0.1,0.1-0.1c0.4,0,7.5,0.8,7.5,2.5c0,0.5-0.4,0.8-1.1,1.3c-1.9,1.3-2.4,0.3-2.4,3.3v1.1h22.7
			c0.5,0,0.9-0.3,1.2-0.7c0.9-1.3,3.6-3.5,4.1-3.5c1.2,0,6.9,3.2,6.9,5.3c0,0.6-0.4,1-1.6,1h-33.4c0.5,0.4,0.6,0.5,0.6,0.7
			c0,0.4-0.5,0.6-0.8,0.7c2,3.7,4.5,7,7.9,9.7c1.7-0.5,7.3-3.2,10.1-5.1c0.7-0.5,2.3-2.4,3-3.7c0.1-0.2,0.2-0.3,0.3-0.3
			c0.7,0,5.4,5.6,5.4,7c0,0.5-0.5,0.8-1.3,0.8c-0.5,0-1.1-0.1-1.8-0.4c-0.6-0.2-1-0.5-1.4-0.5c-0.2,0-0.4,0-0.6,0.1
			c-2.2,0.7-9.1,2.1-12.5,2.8c6.3,4.7,15.3,7.6,28.9,7.6C202.8,80.8,203.1,80.9,203.1,81.1z M164.9,28c0,0.5-0.4,0.8-1.5,0.8H144
			c-2.3,0-11.9,0.1-15.3,0.7h-0.1c-0.8,0-3.3-2.6-3.3-3.5c3.4,0.7,11.7,0.9,16.2,1c-0.5-0.2-0.9-0.7-1.3-1.4
			c-0.6-1.1-2.1-3.2-3.6-4.2c-0.3-0.2-0.5-0.4-0.5-0.5c0-0.1,0.1-0.1,0.3-0.1c1.2,0,7.7,1.1,7.7,4.2c0,0.9-0.7,1.8-1.4,2.1h5
			c2.1-4.4,2.3-5.7,2.4-6.7c0.1-0.5,0-0.6,0.3-0.6c0.3,0,5.8,1.7,5.8,2.6c0,0.4-0.5,0.7-1.5,0.8c-1,0.1-0.8,0.2-1.4,0.7l-2.8,3.2
			h5.5c0.2,0,0.7-0.3,0.9-0.6c1-1.4,2.1-2.7,2.7-2.7C160.6,23.8,164.9,26.5,164.9,28z M161.4,18.7c0,0.5-0.4,0.8-1.5,0.8h-14.3
			c-2.2,0-9.2,0.1-12.6,0.7h-0.1c-0.8,0-3.3-2.6-3.3-3.5c3.7,0.8,10.9,0.9,14.5,1v-0.5c0-1.2-0.3-4.1-0.8-5.3
			c-0.2-0.3-0.2-0.5-0.2-0.5c0-0.1,0.1-0.1,0.3-0.1c0.5,0,7.1,0.6,7.1,2.1c0,0.5-0.4,0.8-1,0.9c-2.2,0.6-2,0.5-2.1,3.5h5.7
			c0.1,0,0.6-0.3,0.8-0.6c2.1-2.6,2.2-2.6,2.5-2.6C157.7,14.7,161.4,17.4,161.4,18.7z M160,34.3c0,0.5-0.8,0.8-1.6,1.3
			c-0.8,0.6-1,0.7-1,4.4c0,1.9,0,4.7,0.1,5.4c0.1,1,0.2,1.4,0.2,3c-0.1,4.8-4.8,6.3-6.7,6.3c-0.5,0-0.9-0.3-1.2-0.8
			c-0.7-1.5-7.1-4-7.1-4.3c0,0,0.1-0.1,0.3-0.1s0.4,0.1,0.6,0.1c3,0.5,5.3,0.8,7,0.8c2.4,0,3.4-0.7,3.5-2.6c0-0.7,0.1-1.6,0.1-2.5
			h-15.9c0,2.7,0.1,5.9,0.1,8.5c0,0.8-1.4,1.5-2.5,1.5c-0.8,0-1.6-0.4-1.6-1.3v-0.2l0.8-15.9c0-1.7-0.1-4.9-0.5-7.4v-0.5
			c0.6,0,4.7,1.8,5.8,2.4l0.5,0.4h12.4c0.5,0,0.7-0.1,1-0.5c0.2-0.3,1.1-1.3,1.6-1.3c0.1,0,0.3,0.1,0.4,0.1c0.9,0.4,2,0.9,3.1,1.8
			C159.7,33.6,160,34,160,34.3z M154,35.3c0-0.7-0.4-0.8-0.6-0.8s-0.4,0.1-0.5,0.1h-13.8c-0.9,0.5-0.9,0.7-0.9,2.5
			c0,0.4-0.1,0.8-0.1,1.2H154L154,35.3L154,35.3z M154.1,39.9h-15.9v3.7h15.9V39.9z M201.1,49c0,1.8-3.4,3.8-9.7,4.2
			c-2.2,0.2-6.1,0.3-9.3,0.3c-6.7,0-14.5-0.3-14.5-5.7v-0.3c0.1-2,0.3-9.7,0.3-11.2c0-4.8,0-6-0.5-7.9c-0.1-0.2-0.1-0.4-0.1-0.5
			c0-0.2,0.1-0.3,0.3-0.3s0.5,0.1,0.8,0.2c3.1,0.7,5.1,2.4,5.1,2.4h15.3v-3.5c0-0.3-0.4-0.8-1-0.8h-16.4c-0.5,0.7-1.4,1.1-2.3,1.1
			c-0.7,0-1.3-0.4-1.3-1.2v-0.2c0.2-2.2,0.3-8,0.4-9.2c0-0.4-0.3-3.1-0.6-4.9c0-0.1-0.1-0.2-0.1-0.3c0-0.2,0.1-0.3,0.3-0.3
			c0.2,0,0.4,0.1,0.6,0.1c0.8,0,5.9,0.4,5.9,1.9c0,0.5-0.5,1-1.2,1.4c-1.1,0.5-1.4,0.4-1.5,2.1c0,0.5-0.1,1-0.1,1.8h15.6
			c0.3,0,0.8-0.4,1-0.7c1.9-2.8,2.7-3,3.1-3c0.2,0,0.4,0.1,0.5,0.1c2.5,0.9,5.4,4.2,5.4,4.8c0,0.3-0.4,0.5-1.6,0.5h-23.8
			c0,1.5,0.1,3.2,0.1,4.2h15.5c0.4,0,0.8-0.1,1-0.5c0.7-1,1.3-1.7,1.8-1.7c0.9,0,5.2,2.4,5.2,3.8c0,0.7-0.8,1-1.5,1.4
			c-1.3,0.7-1.4,0.6-1.4,1.4c0,0.1,0,1.3,0.3,3.5v0.3c0,0.8-0.4,1.3-0.8,1.6c1.3,0.7,2.1,1.4,2.1,2.1c0,0.5-0.3,0.8-1.1,0.8h-21v1.4
			c0,0.5,0,1-0.1,1.6h15.2c0.1,0,0.5-0.2,0.7-0.5c0.5-0.5,1.2-0.9,1.7-1.4c0.2-0.2,0.5-0.3,0.6-0.3c0.3,0,4,1.9,4,2.9
			c0,0.5-0.3,0.7-1.1,0.7h-21c-0.1,1.1-0.1,2.3-0.1,3.3h15.3c0.1,0,0.5-0.2,0.7-0.5c0.5-0.5,1.2-0.9,1.7-1.4
			c0.2-0.1,0.4-0.2,0.5-0.2c0,0,4.1,1.5,4.1,2.8c0,0.5-0.3,0.7-1.1,0.7h-21.1v0.5c0.1,2.9,0.6,3.4,10.7,3.4
			c12.4,0,13.2-0.2,15.1-9.7c0.1-0.5,0.2-0.7,0.3-0.7c0.5,0,1.1,6.5,2.5,7.3C200.6,47.6,201.1,48.3,201.1,49z M188.5,32.5v-0.8
			h-15.9c-1,0.4-1.3,0.5-1.3,2.5v0.8h15.1c0.2,0,2.3-1.7,2.3-1.7C188.5,33.2,188.5,32.8,188.5,32.5z"/>
		<path class="st0" d="M218.7,38.2c0,9.3-5.9,9.7-6,9.7c-1.4,0-2.3-0.9-2.3-2.2c0-0.8,0.5-1.8,1.4-2.7c4-3.7,3.8-9.3,4.2-13.1
			c0.1-0.5,0.2-0.8,0.4-0.8C216.8,29.1,218.7,33.2,218.7,38.2z M228.1,20.4c-0.1,4.7-0.2,13.8-0.2,24.3c0,12.8,0.1,27.7,0.5,38.6
			v0.2c0,2-1.9,2.7-3.1,2.7c-1.1,0-2.1-0.7-2.1-2.4v-0.2c0.5-10.8,0.8-34.9,0.8-49.1v-6.4c0-9.7-0.3-12.7-0.7-14.9
			c-0.1-0.4-0.2-0.5-0.2-0.6s0.1-0.2,0.2-0.2c0.6,0,8.3,0.7,8.3,2.8c0,0.5-0.4,1.1-1.3,1.5C228.8,17.5,228.2,17,228.1,20.4z
			 M240.2,33.7c0,1.4-0.9,2.6-2.2,2.6c-0.8,0-1.7-0.5-2.5-1.9c-1.4-2.4-3.9-5.1-5.5-6.9c-0.3-0.3-0.4-0.5-0.4-0.6
			c0-0.1,0.1-0.2,0.4-0.2C232,26.9,240.2,29.2,240.2,33.7z M288.6,80.4c0,0.5-0.4,1-1.8,1h-34.6c-4.8,0-8.8,0.2-16,0.8H236
			c-1.4,0-3.9-3.2-3.9-4.2c8.4,1,15.3,1.3,20.3,1.3h6.6c0.1-3.1,0.2-11.6,0.2-20.8c-4.2,0-9.2,0.1-15,0.7h-0.1c-1.4,0-3.6-3-3.6-4.1
			c6.7,0.8,13.8,1.1,18.7,1.2V38.9h-13.5c-5.9,10.6-11.5,16.7-12,16.7c-0.1,0-0.1-0.1-0.1-0.2c0-0.2,0.1-0.5,0.5-1
			c7.3-10.5,13.8-27,13.8-33c0-0.8,0.1-0.8,0.1-0.8c0.2,0,0.3,0.1,0.5,0.1c0.1,0,7.3,1.5,7.3,3.6c0,0.8-0.8,1.4-2.5,1.9
			c-1.4,0.5-1.8,0.7-2.4,1.8c-1.4,3.1-2.6,6-4.2,8.8h12.4c0-3.7-0.1-6.3-0.1-7.1c-0.2-5,0.3-10.9-0.9-15.9c-0.1-0.4-0.2-0.6-0.2-0.7
			c0-0.1,0-0.1,0.1-0.1c0.1,0,8.6,1,8.6,2.9c0,0.4-0.4,0.8-1.2,1.2c-2.4,1.2-2.6,0.2-2.6,5.5c0,1.4-0.1,7-0.1,14.2h9.2
			c0.5,0,1-0.4,1.3-0.8c0.8-1.2,3.4-4.1,4.2-4.1c0.3,0,0.5,0.1,0.6,0.1c2.7,1,7,4.3,7,5.8c0,0.6-0.5,1.1-1.8,1.1h-20.4v17.4h6.9
			c0.5,0,0.9-0.4,1.2-0.8c2.5-3.5,3-4.1,3.8-4.1c0.3,0,0.5,0.1,0.6,0.1c2.5,1,6.4,4.3,6.4,5.8c0,0.6-0.5,1.1-1.8,1.1h-17.1
			c0,9.3,0.1,17.6,0.2,20.8H275c0.5,0,1-0.4,1.4-0.8c3.2-4.2,3.8-4.2,4.2-4.2c0.3,0,0.5,0.1,0.6,0.1
			C282.5,74.7,288.6,78.5,288.6,80.4z"/>
		<path class="st0" d="M366.8,81.2c0,2-1.6,3.1-3,3.1c-1.1,0-2.1-0.7-2.1-2.3v-4.2h-54.4v4c0,1.7-1.6,2.9-3,2.9
			c-1,0-1.8-0.6-1.8-2.2v-0.4c0.8-10.4,1.1-26.1,1.1-37.8c0-4.4,0-8.3-0.1-11.1c0-2-0.2-10.4-0.9-14.1c-0.1-0.3-0.1-0.5-0.1-0.6
			c0-0.1,0.1-0.3,0.2-0.3c0.4,0,5.1,1.9,7.6,3.4l0.5,0.4h48.1c0.4,0,0.9-0.2,1.3-0.7c0.6-0.8,2.4-2.4,3-2.4c0.6,0,6.6,3.8,6.6,5.6
			c0,0.9-1,1.5-2.4,2.3c-1.7,0.8-1.7,0.8-1.7,8.4C365.8,46.1,366.3,68.1,366.8,81.2L366.8,81.2L366.8,81.2z M339,55.7
			c0.1-1.9,0.1-26,0.1-27.5c0-1,0-2.7-0.1-3.8h-9.5c0.5,0.2,0.7,0.5,0.7,0.7c0,0.4-0.5,0.8-1.2,1c-1,0.4-1,0.3-1,3.4
			c-0.2,15.1,0.2,28.9-18.1,37.2c-0.8,0.4-1.6,0.5-2.1,0.5h-0.2c-0.1,2.8-0.1,5.7-0.1,8.3h54.3c-0.1-16.2-0.2-40.2-0.8-50
			c0-0.8-0.5-1.1-0.9-1.1h-15.3c0.4,0.2,0.5,0.5,0.5,0.6c0,0.4-0.4,0.7-0.9,0.9c-1.1,0.5-1.2,1-1.2,1.5c-0.1,0.8-0.2,26.9-0.2,28.1
			c0,1.8,0.8,2.5,4.4,2.5c1.4,0,2.9-0.2,4-0.4c1.7-0.4,2.4-4.2,3.4-7.9c0.1-0.5,0.3-0.6,0.4-0.6c0.6,0,0.9,6.7,1.6,7
			c0.9,0.4,1.5,1.1,1.5,1.9c0,3.2-6.6,3.9-11.6,3.9c-5.9,0-7.7-1.9-7.7-5.6v-0.7H339z M310.3,24.3l-0.5,0.4
			c-1.7,1.1-1.7,1.7-1.7,4.6c0,5.9-0.4,22.4-0.6,37.3c0.3-0.3,0.6-0.5,1.2-0.8c12.9-7.1,15.1-18.9,15.1-29.5c0-2.1-0.1-4.1-0.2-5.9
			c-0.1-1.1,0-4.4-0.2-5.9C323.5,24.3,310.3,24.3,310.3,24.3z"/>
		<path class="st0" d="M458.1,46.7c0,0.9-0.8,1.7-3.1,1.8c-3.9,0.1-6.3,3-9.7,4.2c-0.4,0.2-0.5,0.2-0.7,0.2l0,0
			c0-0.2,0.2-0.4,0.4-0.7c0.5-0.6,3.1-5.4,3.1-6.6c0-0.4-0.2-0.5-0.5-0.5h-55.1c-0.4,5.5-3.7,10.8-7.1,10.8c-1.4,0-2.5-1-2.5-2.4
			c0-0.8,0.5-1.9,1.4-2.7c4.8-4.2,5.8-6.3,6.8-11c0.1-0.4,0.3-0.6,0.5-0.6c0.7,0,0.9,3.5,0.9,3.8H448c0.5,0,1.2-0.4,1.5-0.8
			c0.1-0.1,1.3-1.3,2.2-1.3C453.1,40.9,458.1,44.5,458.1,46.7z M456.7,82.2c0,0.6-0.4,1.1-1.7,1.1h-43.8c-4.6,0-16.6,0.2-24.1,0.9
			h-0.1c-1.5,0-4.1-3.4-4.1-4.4c5.2,0.6,12.9,1,19.3,1.2v-8c0-18.1,0-19-0.8-22.1c-0.1-0.3-0.1-0.5-0.1-0.5c0-0.1,0.1-0.2,0.2-0.2
			c1.5,0,5.5,2.3,6.4,2.8h24.5c0.5,0,0.8-0.8,0.9-0.8c0.2-0.1,0.8-1.1,0.8-1.1c0.2,0,0.6,0,1,0.2c0.8,0.8,5.3,2.1,5.3,3.7
			c0,0.7-0.8,1.3-1.6,1.5c-1.1,0.3-1.9,0.5-2,1.4c-0.1,0.6-0.1,2.3-0.1,4.3c0,5.9,0.2,15.7,0.2,19.1h6.2c0.5,0,0.8-0.5,1.2-0.8
			c3.6-4,3.8-4.2,4.2-4.2c0.3,0,0.5,0.1,0.6,0.1C452.1,77.4,456.7,80.8,456.7,82.2z M445.7,17.1c0,1-1.4,1.4-2.1,1.8
			c-1.3,0.7-1.5,1.7-1.5,6.5c0,4.1,0.4,6.6,0.6,10.7v0.3c0,1.7-1.3,2.9-2.5,2.9c-0.8,0-1.5-0.6-1.5-2.3v-1.3h-37.6v1.4
			c0,1.5-1.4,2.4-2.5,2.4c-0.9,0-1.7-0.6-1.7-2.1v-0.4c0.4-5.8,0.7-7.9,0.7-14.4c0-1,0-7-0.8-10.3c-0.1-0.4-0.1-0.5-0.1-0.6v-0.1
			c0.4,0,4.6,2.1,6.3,3.2h33.9c0.5,0,0.7-0.2,1-0.5c0.5-0.6,1.1-1,1.5-1.4c0.3-0.2,0.5-0.3,0.7-0.3
			C440.6,12.7,445.7,15.4,445.7,17.1z M417.5,17h-14.2c-0.2,0.2-0.5,0.3-0.7,0.5c-1.4,0.9-1.7,1.4-1.8,4.2c0,0.8-0.1,1.6-0.1,2.4
			h17.1C417.9,21.7,417.9,19.5,417.5,17z M400.8,26.2c0,2.2,0.1,4.2,0.2,7.3h16.7c0.1-2.9,0.2-4.6,0.2-7.3H400.8z M433.1,64.3h-27
			v6.9h27V64.3z M433.1,73.3h-27V81c2.4,0.1,4.2,0.1,5.6,0.1h21.4V73.3z M433.1,55.9c0-0.1-0.2-0.8-0.5-0.8h-24.6
			c-1.5,0.8-1.6,0.9-1.7,3.1v3.9h26.9L433.1,55.9L433.1,55.9z M438.6,26.2H421c0,2.3,0,3.9,0.1,7.3h17.6
			C438.6,30.6,438.6,28.6,438.6,26.2z M438.1,17h-15.3c0.4,0.2,0.5,0.5,0.5,0.7c0,0.5-0.7,1-1.4,1.4c-0.4,0.2-0.6,0.8-0.6,1.7
			c-0.1,1.2-0.1,2.3-0.1,3.1h17.5c0-1.7,0.1-3.8,0.1-6.2C438.6,17.3,438.2,17,438.1,17z"/>
		<path class="st0" d="M543.5,58.2c0,0.5-0.5,1-1.9,1h-33.9c0.1,8.6,0.3,17.1,0.5,24.3c0,1.4-1.4,3-3.1,3c-1.1,0-2-0.7-2-2.3V84
			c0.5-6.7,0.7-15.6,0.8-24.7h-5.7c-4.8,0-18.6,0.2-26.2,0.9h-0.1c-1.6,0-4.2-3.4-4.2-4.4c8.8,1,25.9,1.4,30.9,1.4h5.3
			c0.1-4.4,0.1-9,0.1-13.3h-3c-4.5,0-15.1,0.2-22.4,0.9h-0.1c-1.6,0-4.2-3.3-4.2-4.3c8.3,1,22.4,1.2,27.1,1.2h2.5
			c0-23.8-0.6-28.2-1.1-30c-0.1-0.3-0.1-0.5-0.1-0.5c0-0.1,0-0.2,0.2-0.2c1.4,0,8.8,1.3,8.8,3.1c0,0.6-0.7,1.2-1.6,1.8
			c-2.4,1.4-1.9,1-2.3,4.1c-0.5,3.7-0.5,11.9-0.5,21.8h16.5c0.5,0,1.2-0.4,1.5-0.8c3.3-4.4,3.7-4.7,4.2-4.7c2.2,0,7.5,5.2,7.5,6.6
			c0,0.5-0.4,1.1-1.8,1.1h-27.9c0,4.2,0.1,8.8,0.2,13.3h22c0.6,0,1.2-0.4,1.4-0.8c2.2-3.2,4-5.1,4.4-5.1
			C537.6,51.1,543.5,57,543.5,58.2z M495.2,30c0,1.5-0.8,2.6-2.2,2.6c-1.2,0-2.5-0.8-4-3.1c-1.5-2.5-5.8-6.5-8.7-8.4
			c-0.4-0.3-0.5-0.5-0.5-0.5c0-0.2,0.4-0.2,0.8-0.2C486.3,20.6,495.2,24.2,495.2,30z M532.9,24.3c0,0.6-0.5,1-1.7,1
			c-0.5,0-0.9-0.1-1.4-0.2c-0.4-0.1-0.6-0.1-0.8-0.1c-0.8,0-1.2,0.4-2.1,0.9c-6.9,5.1-13.7,8.6-14.5,8.6h-0.1c0-0.2,0.4-0.5,0.8-0.9
			c3-2.6,7.6-7.7,10-10.7c1.4-1.7,2.1-3.6,2.6-4.7c0.3-0.5,0.4-0.7,0.5-0.7C526.8,17.6,532.9,22.9,532.9,24.3z"/>
	</g>
	<g>
		<g>
			<path class="st0" d="M69.1,105.2c-0.3-0.8-0.7-1.3-1.2-1.7c-0.8-0.6-1.7-0.7-2.5-0.7c-0.8,0-1.8,0.1-2.7,0.9
				c-0.7,0.6-1.1,1.5-1.1,2.5c0,0.7,0.3,1.4,0.9,2c0.4,0.4,1.3,0.9,1.8,1.1l1.9,0.9c1,0.5,2,1,2.7,1.8c1.2,1.2,1.4,2.4,1.4,3.8
				c0,1.2-0.2,3.2-1.8,4.8c-1.8,1.9-4.1,2.1-5.6,2.1c-1.7,0-3.1-0.3-4.4-1.6c-0.9-0.9-1.6-2.4-1.8-4l2.4-0.7
				c0.1,1.1,0.5,2.1,1.1,2.8c0.9,0.9,2,1.1,3,1.1s2.4-0.2,3.3-1.2c0.8-0.8,1.1-2.1,1.1-3.1c0-1.3-0.6-2.2-1.1-2.7
				c-0.4-0.4-1.4-0.9-2.1-1.3l-1.7-0.8c-0.6-0.3-1.8-0.9-2.5-1.6c-0.6-0.6-1.2-1.6-1.2-3.3c0-1.5,0.5-2.8,1.7-4.1
				c1.3-1.3,2.9-1.8,4.7-1.8c0.9,0,2.4,0.1,3.5,0.9c0.8,0.6,1.5,1.4,1.9,2.5L69.1,105.2z"/>
			<path class="st0" d="M76.4,99h2.4l-1.4,11.6c0.1-0.1,0.7-0.8,1.3-1.2c0.8-0.5,1.7-0.6,2.5-0.6c0.9,0,2.2,0.2,3.2,1.1
				c0.9,0.9,1,2,1,3c0,0.7-0.1,1.4-0.2,2.2l-0.9,7.3h-2.4l0.8-6.6c0.1-0.6,0.2-1.7,0.2-2.3c0-0.6-0.1-1.4-0.7-2
				c-0.4-0.4-1-0.7-1.9-0.7c-1,0-1.9,0.4-2.4,0.9c-0.9,0.9-1.1,2.5-1.3,3.7l-0.8,7h-2.4L76.4,99z"/>
			<path class="st0" d="M92.5,109.1l-1.6,13.4h-2.4l1.6-13.3L92.5,109.1L92.5,109.1z M90.8,103c0.3-0.3,0.8-0.6,1.4-0.6
				c0.5,0,0.8,0.1,1,0.4s0.4,0.7,0.4,1c0,0.6-0.2,1-0.5,1.3c-0.4,0.5-0.9,0.6-1.3,0.6c-0.4,0-0.8-0.1-1.1-0.5
				c-0.3-0.3-0.4-0.6-0.4-1C90.4,103.8,90.6,103.3,90.8,103z"/>
			<path class="st0" d="M97,109.1h2.4l-0.2,1.5c0.1-0.1,0.7-0.8,1.3-1.2c0.8-0.5,1.7-0.6,2.5-0.6c0.9,0,2.2,0.2,3.2,1.1
				c0.9,0.9,1,2,1,3c0,0.7-0.1,1.4-0.2,2.2l-0.9,7.3h-2.4l0.8-6.6c0.1-0.6,0.2-1.7,0.2-2.3c0-0.6-0.1-1.4-0.7-2
				c-0.4-0.4-1-0.7-1.9-0.7c-1,0-1.9,0.4-2.4,0.9c-0.9,0.9-1.1,2.5-1.3,3.7l-0.8,7h-2.4L97,109.1z"/>
			<path class="st0" d="M117.1,112.2c-0.1-0.4-0.4-0.7-0.6-0.9c-0.4-0.4-0.7-0.5-1.1-0.5c-0.5,0-0.9,0.1-1.3,0.4
				c-0.4,0.3-0.5,0.8-0.5,1.2c0,0.5,0.2,0.8,0.4,0.9c0.3,0.3,0.8,0.6,1.3,0.8l1.2,0.6c0.5,0.3,1.3,0.8,1.7,1.2
				c0.7,0.7,0.8,1.5,0.8,2.4c0,1.2-0.4,2.4-1.1,3.1c-1.2,1.3-2.8,1.4-3.9,1.4c-0.9,0-1.9-0.1-2.8-0.8c-0.8-0.6-1.3-1.5-1.6-2.5
				l2-0.8c0.1,0.5,0.4,1.1,0.8,1.6c0.5,0.5,1,0.6,1.6,0.6c0.4,0,1.2,0,1.8-0.6c0.5-0.4,0.7-1,0.7-1.7c0-0.6-0.3-1-0.7-1.4
				c-0.2-0.2-0.9-0.6-1.4-0.8l-0.8-0.4c-0.6-0.3-1.3-0.8-1.8-1.2c-0.6-0.6-0.8-1.3-0.8-2.1c0-1.2,0.5-2.1,1.1-2.7
				c0.9-0.9,2-1.1,3-1.1c0.8,0,1.6,0.2,2.5,0.8c0.5,0.4,0.9,1,1.2,1.6L117.1,112.2z"/>
			<path class="st0" d="M124.5,99h2.4l-1.4,11.6c0.1-0.1,0.7-0.8,1.3-1.2c0.8-0.5,1.7-0.6,2.5-0.6c0.9,0,2.2,0.2,3.2,1.1
				c0.9,0.9,1,2,1,3c0,0.7-0.1,1.4-0.2,2.2l-0.9,7.3H130l0.8-6.6c0.1-0.6,0.2-1.7,0.2-2.3c0-0.6-0.1-1.4-0.7-2
				c-0.4-0.4-1-0.7-1.9-0.7c-1,0-1.9,0.4-2.4,0.9c-0.9,0.9-1.1,2.5-1.3,3.7l-0.8,7h-2.4L124.5,99z"/>
			<path class="st0" d="M139.7,116.1c-0.1,0.6-0.1,1.1-0.1,1.7c0,0.8,0.1,1.6,0.8,2.2c0.5,0.5,1.2,0.7,2,0.7c0.9,0,1.7-0.4,2.2-0.8
				c0.8-0.8,0.9-2,1.1-3.5l0.9-7.4h2.4l-0.9,7.6c-0.2,1.8-0.5,3.5-1.6,4.7c-1.2,1.2-2.8,1.4-3.9,1.4c-1.8,0-3-0.5-3.9-1.2
				c-1-0.9-1.3-2-1.3-3.4c0-0.7,0.1-1.7,0.2-2.3l0.8-6.9h2.4L139.7,116.1z"/>
			<path class="st0" d="M158.3,112.2c-0.1-0.4-0.4-0.7-0.6-0.9c-0.4-0.4-0.7-0.5-1.1-0.5c-0.5,0-0.9,0.1-1.3,0.4
				c-0.4,0.3-0.5,0.8-0.5,1.2c0,0.5,0.2,0.8,0.4,0.9c0.3,0.3,0.8,0.6,1.3,0.8l1.2,0.6c0.5,0.3,1.3,0.8,1.7,1.2
				c0.7,0.7,0.8,1.5,0.8,2.4c0,1.2-0.4,2.4-1.1,3.1c-1.2,1.3-2.8,1.4-3.9,1.4c-0.9,0-1.9-0.1-2.8-0.8c-0.8-0.6-1.3-1.5-1.6-2.5
				l2-0.8c0.1,0.5,0.4,1.1,0.8,1.6c0.5,0.5,1,0.6,1.6,0.6c0.4,0,1.2,0,1.8-0.6c0.5-0.4,0.7-1,0.7-1.7c0-0.6-0.3-1-0.7-1.4
				c-0.2-0.2-0.9-0.6-1.4-0.8l-0.8-0.4c-0.6-0.3-1.3-0.8-1.8-1.2c-0.6-0.6-0.8-1.3-0.8-2.1c0-1.2,0.5-2.1,1.1-2.7
				c0.9-0.9,2-1.1,3-1.1c0.8,0,1.6,0.2,2.5,0.8c0.5,0.4,0.9,1,1.2,1.6L158.3,112.2z"/>
			<path class="st0" d="M175.4,119.1c-0.6,1-1.6,2.2-2.5,2.7c-1.3,0.8-2.7,1-3.9,1c-1.6,0-3.1-0.3-4.4-1.7c-0.8-0.8-1.8-2.4-1.8-4.8
				c0-2.3,0.8-4.3,2.3-5.8c1.4-1.4,2.9-1.9,4.6-1.9c2.3,0,3.6,0.8,4.3,1.6c0.9,1,1.9,2.8,1.5,5.9h-10.4c0,1.9,0.6,2.9,1.2,3.5
				c0.8,0.8,1.7,1,2.6,1c0.8,0,1.7-0.1,2.5-0.8c0.7-0.5,1.3-1.3,1.7-2.1L175.4,119.1z M173.4,114.3c0-0.9-0.5-2-1.1-2.6
				c-0.8-0.7-1.7-0.8-2.5-0.8c-1.2,0-2.1,0.3-2.9,1.1c-0.6,0.6-1,1.4-1.3,2.4H173.4z"/>
			<path class="st0" d="M182.4,109.1l-1.6,13.3h-2.4l1.6-13.3C180,109.1,182.4,109.1,182.4,109.1z M180.7,103
				c0.3-0.3,0.8-0.6,1.4-0.6c0.5,0,0.8,0.1,1,0.4c0.3,0.3,0.4,0.7,0.4,1c0,0.6-0.2,1-0.5,1.3c-0.4,0.5-0.9,0.6-1.3,0.6
				c-0.4,0-0.8-0.1-1.1-0.5c-0.3-0.3-0.4-0.6-0.4-1C180.2,103.8,180.4,103.3,180.7,103z"/>
			<path class="st0" d="M198.8,113.2l-5.6-12.2h2.7l4.2,9.5l6.7-9.5h2.8l-8.6,12.2l-1,9.2h-2.4L198.8,113.2z"/>
			<path class="st0" d="M211.4,121c-0.9-1-1.7-2.5-1.7-4.6c0-1.9,0.7-4,2.5-5.6c1.5-1.3,3.2-2,5.4-2s3.8,0.8,4.9,1.8
				c1.3,1.3,1.6,3,1.6,4.3c0,2.9-1.2,4.7-2.3,5.8c-1.7,1.7-3.8,2.1-5.6,2.1C214.2,122.8,212.6,122.4,211.4,121z M213.7,112.3
				c-1.1,1.1-1.7,2.5-1.7,4.2c0,1.5,0.7,2.5,1.1,3c0.5,0.5,1.4,1.2,3.1,1.2s2.8-0.7,3.6-1.5c1-1,1.6-2.6,1.6-4.2
				c0-1.3-0.5-2.4-1.1-2.9c-0.7-0.7-1.7-1.2-3-1.2C216.5,110.9,214.9,111.1,213.7,112.3z"/>
			<path class="st0" d="M230.6,109.1l-2.5,20.8h-2.4l2.5-20.8H230.6z M228.8,103c0.3-0.3,0.8-0.6,1.4-0.6c0.5,0,0.8,0.1,1,0.4
				c0.3,0.3,0.4,0.7,0.4,1c0,0.6-0.2,1-0.5,1.3c-0.4,0.5-0.9,0.6-1.3,0.6s-0.8-0.1-1.1-0.5c-0.3-0.3-0.4-0.6-0.4-1
				C228.3,103.8,228.5,103.3,228.8,103z"/>
			<path class="st0" d="M235,121c-0.9-1-1.7-2.5-1.7-4.6c0-1.9,0.7-4,2.5-5.6c1.5-1.3,3.2-2,5.4-2s3.8,0.8,4.9,1.8
				c1.3,1.3,1.6,3,1.6,4.3c0,2.9-1.2,4.7-2.3,5.8c-1.7,1.7-3.8,2.1-5.6,2.1C237.8,122.8,236.3,122.4,235,121z M237.3,112.3
				c-1.1,1.1-1.7,2.5-1.7,4.2c0,1.5,0.7,2.5,1.1,3c0.5,0.5,1.4,1.2,3.1,1.2s2.8-0.7,3.6-1.5c1-1,1.6-2.6,1.6-4.2
				c0-1.3-0.5-2.4-1.1-2.9c-0.7-0.7-1.7-1.2-3-1.2C240.1,110.9,238.6,111.1,237.3,112.3z"/>
			<path class="st0" d="M253.2,99h2.4l-1.4,11.6c0.1-0.1,0.7-0.8,1.3-1.2c0.8-0.5,1.7-0.6,2.5-0.6c0.9,0,2.2,0.2,3.2,1.1
				c0.9,0.9,1,2,1,3c0,0.7-0.1,1.4-0.2,2.2l-0.9,7.3h-2.4l0.8-6.6c0.1-0.6,0.2-1.7,0.2-2.3c0-0.6-0.1-1.4-0.7-2
				c-0.4-0.4-1-0.7-1.9-0.7c-1,0-1.9,0.4-2.4,0.9c-0.9,0.9-1.1,2.5-1.3,3.7l-0.8,7h-2.4L253.2,99z"/>
			<path class="st0" d="M277.2,109.1h2.4l-1.6,13.3h-2.4l0.2-1.9c-0.4,0.6-1,1.2-1.7,1.6c-0.9,0.6-2,0.7-2.7,0.7
				c-1.6,0-3.1-0.3-4.3-1.6c-1-1-1.7-2.5-1.7-4.7c0-2.7,1-4.7,2.4-5.9c1.2-1.2,2.8-1.7,4.8-1.7c0.9,0,1.9,0.1,2.8,0.7
				c0.8,0.4,1.3,0.9,1.8,1.6L277.2,109.1z M269.4,112.1c-1,0.9-1.7,2.5-1.7,4.2c0,1.3,0.5,2.6,1.4,3.5c0.8,0.8,1.8,1,2.7,1
				c1.4,0,2.5-0.5,3.3-1.3c0.9-1,1.5-2.7,1.5-4.3c0-1.8-0.8-2.8-1.2-3.2c-0.6-0.5-1.4-1-2.7-1C271.2,110.9,270.1,111.4,269.4,112.1z
				"/>
			<path class="st0" d="M283.9,109.1h2.4l-0.2,1.5c0.1-0.1,0.7-0.8,1.3-1.2c0.8-0.5,1.7-0.6,2.5-0.6c0.9,0,2.2,0.2,3.2,1.1
				c0.9,0.9,1,2,1,3c0,0.7-0.1,1.4-0.2,2.2l-0.9,7.3h-2.3l0.8-6.6c0.1-0.6,0.2-1.7,0.2-2.3c0-0.6-0.1-1.4-0.7-2
				c-0.4-0.4-1-0.7-1.9-0.7c-1,0-1.9,0.4-2.4,0.9c-0.9,0.9-1.1,2.5-1.3,3.7l-0.8,7h-2.4L283.9,109.1z"/>
		</g>
		<g>
			<rect x="301.9" y="99" class="st0" width="2" height="7.7"/>
			<rect x="305.5" y="99" class="st0" width="2" height="7.7"/>
		</g>
		<g>
			<rect x="43.6" y="99" class="st0" width="2" height="7.7"/>
			<rect x="47.2" y="99" class="st0" width="2" height="7.7"/>
		</g>
	</g>
	<path class="st0" d="M37.3,50.6c-6.6,4.8-15.4,5.2-21.1-1.3c-5.8-5.7-5.9-14.9-1.5-21.4c4.2-7.1,11.6-10.2,19.5-10.6
		c7.6-0.5,15.4,0.5,22.8,1.9c15,2.9,29.6,7.6,44,12.9c14.3,5.3,28.4,11.2,42.4,17.5l-0.2,0.4C116.6,38.6,50.1,8.9,23.4,20.6
		c-8.1,4.2-13.9,14.9-9.9,23.7c2.4,5,7.4,9.2,13,9.3c3.8,0.1,7.4-1.4,10.5-3.6L37.3,50.6L37.3,50.6z"/>
	<g>
		<path class="st0" d="M43.6,145.4l3.2-11.4l3,9.2l5.4-9.2l0.3,11.4h-1.2l-0.1-7.6l-4.6,7.9l-2.6-7.9l-2,7.6H43.6z"/>
		<path class="st0" d="M63.9,143.7c-0.3,0.5-0.8,1-1.2,1.4c-0.7,0.5-1.4,0.5-2,0.5c-0.8,0-1.5-0.2-2.3-0.8c-0.4-0.4-0.8-1.1-0.8-2.5
			c0-1.1,0.5-2.2,1.1-2.9c0.7-0.7,1.4-0.9,2.4-0.9c1.1,0,1.8,0.4,2.2,0.8c0.5,0.5,0.9,1.4,0.8,2.9h-5.2c0,0.9,0.3,1.5,0.6,1.8
			c0.4,0.4,0.8,0.5,1.3,0.5c0.4,0,0.8-0.1,1.3-0.4c0.4-0.3,0.7-0.7,0.8-1L63.9,143.7z M62.9,141.3c0-0.5-0.2-1-0.6-1.3
			c-0.4-0.4-0.8-0.4-1.2-0.4c-0.6,0-1,0.2-1.5,0.6c-0.3,0.3-0.6,0.8-0.7,1.2L62.9,141.3L62.9,141.3z"/>
		<path class="st0" d="M66.3,138.7h1.1l-0.1,0.8c0.2-0.3,0.4-0.5,0.7-0.7c0.4-0.2,0.7-0.3,1-0.3s0.8,0.1,1.1,0.3
			c0.3,0.2,0.6,0.5,0.7,0.8c0.2-0.3,0.5-0.6,0.8-0.8c0.4-0.3,0.8-0.3,1.2-0.3c0.6,0,1.1,0.1,1.6,0.6c0.4,0.4,0.6,0.8,0.6,1.4
			c0,0.4-0.1,0.8-0.1,1.3l-0.5,3.6h-1.1l0.5-3.6c0.1-0.4,0.1-0.7,0.1-1c0-0.2,0-0.7-0.3-0.9c-0.1-0.1-0.4-0.3-0.8-0.3
			c-0.5,0-0.8,0.2-1,0.4c-0.4,0.4-0.6,1-0.7,1.7l-0.5,3.8h-1.1l0.5-4c0.1-0.5,0.2-1.1-0.3-1.5c-0.2-0.2-0.5-0.3-0.8-0.3
			c-0.4,0-0.7,0.1-0.9,0.4c-0.5,0.5-0.6,1.2-0.7,1.8l-0.5,3.7h-1.1L66.3,138.7z"/>
		<path class="st0" d="M77.3,144.6c-0.5-0.5-0.8-1.2-0.8-2.4c0-0.9,0.3-2,1.2-2.8c0.8-0.7,1.6-1,2.6-1c1.1,0,1.9,0.4,2.5,0.9
			c0.7,0.7,0.8,1.5,0.8,2.2c0,1.4-0.6,2.4-1.1,2.9c-0.8,0.8-1.9,1-2.8,1C78.9,145.6,78,145.3,77.3,144.6z M78.6,140.3
			c-0.6,0.6-0.8,1.3-0.8,2.1c0,0.8,0.3,1.2,0.6,1.5c0.3,0.3,0.8,0.7,1.5,0.7c0.8,0,1.4-0.4,1.8-0.8c0.5-0.6,0.8-1.3,0.8-2.1
			c0-0.7-0.3-1.2-0.6-1.5c-0.4-0.4-0.8-0.7-1.5-0.7C80,139.6,79.2,139.6,78.6,140.3z"/>
		<path class="st0" d="M85.9,138.7h1.1l-0.1,0.8c0.1-0.2,0.4-0.5,0.7-0.7c0.3-0.2,0.7-0.3,0.9-0.3c0.4,0,0.8,0.1,0.9,0.3l-0.7,1
			c-0.1-0.1-0.4-0.2-0.7-0.2c-0.3,0-0.7,0.1-0.8,0.4c-0.5,0.5-0.6,1.2-0.7,1.9l-0.5,3.6h-1.1L85.9,138.7z"/>
		<path class="st0" d="M91.9,138.7l-0.8,6.7h-1.1l0.8-6.7H91.9z M91,135.6c0.1-0.2,0.4-0.3,0.7-0.3c0.2,0,0.4,0.1,0.5,0.2
			c0.2,0.2,0.2,0.3,0.2,0.6c0,0.3-0.1,0.5-0.3,0.7c-0.2,0.2-0.5,0.3-0.7,0.3c-0.2,0-0.4-0.1-0.6-0.2c-0.1-0.1-0.2-0.3-0.2-0.5
			C90.7,136,90.8,135.8,91,135.6z"/>
		<path class="st0" d="M99.5,143.7c-0.3,0.5-0.8,1-1.2,1.4c-0.7,0.5-1.4,0.5-2,0.5c-0.8,0-1.5-0.2-2.3-0.8c-0.4-0.4-0.8-1.1-0.8-2.5
			c0-1.1,0.5-2.2,1.1-2.9c0.7-0.7,1.4-0.9,2.4-0.9c1.1,0,1.8,0.4,2.2,0.8c0.5,0.5,0.9,1.4,0.8,2.9h-5.2c0,0.9,0.3,1.5,0.6,1.8
			c0.4,0.4,0.8,0.5,1.3,0.5c0.4,0,0.8-0.1,1.3-0.4c0.4-0.3,0.7-0.7,0.8-1L99.5,143.7z M98.6,141.3c0-0.5-0.2-1-0.6-1.3
			c-0.4-0.4-0.8-0.4-1.2-0.4c-0.6,0-1,0.2-1.5,0.6c-0.3,0.3-0.6,0.8-0.7,1.2L98.6,141.3L98.6,141.3z"/>
		<path class="st0" d="M104.4,140.2c-0.1-0.2-0.2-0.4-0.3-0.5c-0.2-0.2-0.4-0.2-0.6-0.2c-0.3,0-0.5,0.1-0.7,0.2
			c-0.2,0.2-0.3,0.4-0.3,0.6c0,0.2,0.1,0.4,0.2,0.5c0.2,0.2,0.4,0.3,0.7,0.4l0.7,0.3c0.3,0.1,0.7,0.4,0.8,0.6
			c0.3,0.4,0.5,0.8,0.5,1.2c0,0.7-0.2,1.1-0.6,1.5c-0.6,0.7-1.4,0.8-1.9,0.8c-0.5,0-0.9-0.1-1.4-0.5c-0.4-0.3-0.7-0.8-0.8-1.3l1-0.4
			c0.1,0.3,0.2,0.6,0.4,0.8s0.5,0.3,0.8,0.3c0.2,0,0.6,0,0.9-0.3c0.2-0.2,0.4-0.6,0.4-0.8s-0.1-0.5-0.4-0.7
			c-0.1-0.1-0.5-0.3-0.7-0.4L103,142c-0.3-0.1-0.7-0.4-0.8-0.7c-0.3-0.3-0.4-0.7-0.4-1c0-0.7,0.3-1,0.6-1.4c0.5-0.5,1-0.6,1.5-0.6
			c0.4,0,0.8,0.1,1.2,0.4c0.3,0.2,0.5,0.5,0.7,0.8L104.4,140.2z"/>
		<path class="st0" d="M116.5,138.7h1.1l-0.8,6.7h-1.1l0.1-0.9c-0.2,0.3-0.5,0.6-0.8,0.8c-0.5,0.3-0.9,0.4-1.4,0.4
			c-0.8,0-1.5-0.2-2.2-0.8c-0.5-0.6-0.8-1.3-0.8-2.4c0-1.4,0.6-2.4,1.1-3c0.7-0.6,1.4-0.8,2.5-0.8c0.5,0,0.9,0.1,1.4,0.3
			c0.4,0.2,0.7,0.5,0.8,0.8L116.5,138.7z M112.5,140.2c-0.5,0.5-0.8,1.3-0.8,2.1c0,0.7,0.3,1.3,0.7,1.8c0.4,0.4,0.8,0.5,1.3,0.5
			c0.8,0,1.3-0.3,1.7-0.7c0.5-0.5,0.8-1.3,0.8-2.2c0-0.9-0.4-1.4-0.7-1.6c-0.3-0.3-0.8-0.6-1.4-0.6
			C113.4,139.6,112.9,139.8,112.5,140.2z"/>
		<path class="st0" d="M119.9,138.7h1.1l-0.1,0.8c0.1-0.2,0.4-0.5,0.7-0.7c0.3-0.2,0.7-0.3,0.9-0.3c0.4,0,0.8,0.1,0.9,0.3l-0.7,1
			c-0.1-0.1-0.4-0.2-0.7-0.2c-0.3,0-0.7,0.1-0.8,0.4c-0.5,0.5-0.6,1.2-0.7,1.9l-0.5,3.6h-1.1L119.9,138.7z"/>
		<path class="st0" d="M130.1,143.7c-0.3,0.5-0.8,1-1.2,1.4c-0.7,0.5-1.4,0.5-2,0.5c-0.8,0-1.5-0.2-2.3-0.8
			c-0.4-0.4-0.8-1.1-0.8-2.5c0-1.1,0.5-2.2,1.1-2.9c0.7-0.7,1.4-0.9,2.4-0.9c1.1,0,1.8,0.4,2.2,0.8c0.5,0.5,0.9,1.4,0.8,2.9H125
			c0,0.9,0.3,1.5,0.6,1.8c0.4,0.4,0.8,0.5,1.3,0.5c0.4,0,0.8-0.1,1.3-0.4c0.4-0.3,0.7-0.7,0.8-1L130.1,143.7z M129.2,141.3
			c0-0.5-0.2-1-0.6-1.3c-0.4-0.4-0.8-0.4-1.2-0.4c-0.6,0-1,0.2-1.5,0.6c-0.3,0.3-0.6,0.8-0.7,1.2L129.2,141.3L129.2,141.3z"/>
		<path class="st0" d="M138.8,140.2c-0.1-0.2-0.2-0.4-0.3-0.5c-0.2-0.2-0.4-0.2-0.6-0.2c-0.3,0-0.5,0.1-0.7,0.2
			c-0.2,0.2-0.3,0.4-0.3,0.6c0,0.2,0.1,0.4,0.2,0.5c0.2,0.2,0.4,0.3,0.7,0.4l0.7,0.3c0.3,0.1,0.7,0.4,0.8,0.6
			c0.3,0.4,0.5,0.8,0.5,1.2c0,0.7-0.2,1.1-0.6,1.5c-0.6,0.7-1.4,0.8-1.9,0.8s-0.9-0.1-1.4-0.5c-0.4-0.3-0.7-0.8-0.8-1.3l1-0.4
			c0.1,0.3,0.2,0.6,0.4,0.8s0.5,0.3,0.8,0.3c0.2,0,0.6,0,0.9-0.3c0.2-0.2,0.4-0.6,0.4-0.8s-0.1-0.5-0.4-0.7
			c-0.1-0.1-0.5-0.3-0.7-0.4l-0.4-0.2c-0.3-0.1-0.7-0.4-0.8-0.7c-0.3-0.3-0.4-0.7-0.4-1c0-0.7,0.3-1,0.6-1.4c0.5-0.5,1-0.6,1.5-0.6
			c0.4,0,0.8,0.1,1.2,0.4c0.3,0.2,0.5,0.5,0.7,0.8L138.8,140.2z"/>
		<path class="st0" d="M143.7,133.6l-1.4,11.8h-1.1l1.4-11.8H143.7z"/>
		<path class="st0" d="M145.3,144.6c-0.5-0.5-0.8-1.2-0.8-2.4c0-0.9,0.3-2,1.2-2.8c0.8-0.7,1.6-1,2.6-1c1.1,0,1.9,0.4,2.5,0.9
			c0.7,0.7,0.8,1.5,0.8,2.2c0,1.4-0.6,2.4-1.1,2.9c-0.8,0.8-1.9,1-2.8,1C146.8,145.6,146,145.3,145.3,144.6z M146.5,140.3
			c-0.6,0.6-0.8,1.3-0.8,2.1c0,0.8,0.3,1.2,0.6,1.5c0.3,0.3,0.8,0.7,1.5,0.7c0.8,0,1.4-0.4,1.8-0.8c0.5-0.6,0.8-1.3,0.8-2.1
			c0-0.7-0.3-1.2-0.6-1.5c-0.4-0.4-0.8-0.7-1.5-0.7C147.9,139.6,147.2,139.6,146.5,140.3z"/>
		<path class="st0" d="M154.2,138.7l1.4,4.5l2.7-5.1l1.4,5.1l2.5-4.5h1.3l-4.2,7.2l-1.4-5l-2.7,5l-2.5-7.2H154.2z"/>
		<path class="st0" d="M166.7,133.6l-1.4,11.8h-1.1l1.4-11.8H166.7z"/>
		<path class="st0" d="M169.6,144.7l-2.4-6.1h1.3l1.8,4.8l2.8-4.8h1.3l-6.2,10.5H167L169.6,144.7z"/>
		<path class="st0" d="M181.3,133.6l-0.9,7.6l2.7-2.5h1.5l-3.3,2.9l2.9,3.9h-1.5l-2.4-3l-0.3,0.3l-0.4,2.7h-1.1l1.4-11.8
			L181.3,133.6L181.3,133.6z"/>
		<path class="st0" d="M187.5,138.7l-0.8,6.7h-1.1l0.8-6.7H187.5z M186.6,135.6c0.1-0.2,0.4-0.3,0.7-0.3c0.2,0,0.4,0.1,0.5,0.2
			c0.2,0.2,0.2,0.3,0.2,0.6c0,0.3-0.1,0.5-0.3,0.7s-0.5,0.3-0.7,0.3c-0.2,0-0.4-0.1-0.6-0.2c-0.1-0.1-0.2-0.3-0.2-0.5
			C186.3,136,186.4,135.8,186.6,135.6z"/>
		<path class="st0" d="M191.4,133.6l-1.4,11.8h-1.1l1.4-11.8H191.4z"/>
		<path class="st0" d="M194.8,133.6l-1.4,11.8h-1.1l1.4-11.8H194.8z"/>
		<path class="st0" d="M197.6,138.7l-0.8,6.7h-1.1l0.8-6.7H197.6z M196.7,135.6c0.1-0.2,0.4-0.3,0.7-0.3c0.2,0,0.4,0.1,0.5,0.2
			c0.2,0.2,0.2,0.3,0.2,0.6c0,0.3-0.1,0.5-0.3,0.7s-0.5,0.3-0.7,0.3s-0.4-0.1-0.6-0.2c-0.1-0.1-0.2-0.3-0.2-0.5
			C196.4,136,196.6,135.8,196.7,135.6z"/>
		<path class="st0" d="M199.8,138.7h1.1l-0.1,0.8c0-0.1,0.3-0.4,0.7-0.7c0.4-0.3,0.8-0.3,1.2-0.3c0.5,0,1.1,0.1,1.6,0.6
			s0.6,1,0.6,1.5c0,0.4-0.1,0.8-0.1,1.1l-0.5,3.7h-1.1l0.4-3.4c0-0.3,0.1-0.8,0.1-1.1c0-0.3,0-0.7-0.4-1c-0.2-0.2-0.5-0.4-0.9-0.4
			c-0.5,0-0.9,0.2-1.2,0.5c-0.5,0.5-0.6,1.2-0.7,1.9l-0.5,3.5h-1.1L199.8,138.7z"/>
		<path class="st0" d="M212.6,138.7h1.1l-0.8,6.5c-0.1,1-0.3,2.1-1,2.9c-0.5,0.5-1.2,0.9-2.6,0.9c-1.1,0-1.9-0.4-2.3-0.8
			c-0.8-0.8-0.8-1.8-0.8-2.2v-0.1h1.1v0.1c0,0.5,0.1,1,0.6,1.5c0.4,0.4,0.9,0.5,1.4,0.5c0.8,0,1.4-0.3,1.7-0.6
			c0.6-0.6,0.7-1.4,0.8-2.1l0.1-0.9c-0.2,0.2-0.5,0.6-0.9,0.8c-0.4,0.2-0.8,0.3-1.3,0.3c-0.9,0-1.7-0.3-2.3-0.8
			c-0.7-0.8-0.8-1.6-0.8-2.3c0-1,0.4-2.3,1-2.9c0.5-0.5,1.2-0.9,2.5-0.9c0.4,0,0.9,0,1.5,0.3c0.3,0.2,0.6,0.4,0.8,0.8L212.6,138.7z
			 M208.6,140.1c-0.6,0.5-0.8,1.3-0.8,2.2c0,0.8,0.3,1.3,0.6,1.7c0.4,0.4,0.8,0.6,1.4,0.6c0.8,0,1.3-0.3,1.7-0.6
			c0.6-0.6,0.8-1.5,0.8-2.3c0-0.6-0.2-1.2-0.6-1.6c-0.3-0.3-0.8-0.6-1.4-0.6C209.6,139.6,209.1,139.7,208.6,140.1z"/>
		<path class="st0" d="M220.4,142.2c0,0.3-0.1,0.6-0.1,0.8c0,0.5,0.1,0.8,0.4,1.1c0.3,0.2,0.7,0.4,1,0.4c0.5,0,0.8-0.2,1-0.4
			c0.4-0.4,0.5-0.9,0.6-1.8l0.5-3.7h1.1l-0.5,3.9c-0.1,0.8-0.2,1.8-0.8,2.4c-0.7,0.7-1.4,0.7-2,0.7c-0.9,0-1.5-0.2-2-0.7
			c-0.5-0.5-0.7-1-0.7-1.7c0-0.3,0.1-0.8,0.1-1.1l0.4-3.5h1.1L220.4,142.2z"/>
		<path class="st0" d="M229.8,140.2c-0.1-0.2-0.2-0.4-0.3-0.5c-0.2-0.2-0.4-0.2-0.6-0.2c-0.3,0-0.5,0.1-0.7,0.2
			c-0.2,0.2-0.3,0.4-0.3,0.6c0,0.2,0.1,0.4,0.2,0.5c0.2,0.2,0.4,0.3,0.7,0.4l0.7,0.3c0.3,0.1,0.7,0.4,0.8,0.6
			c0.3,0.4,0.5,0.8,0.5,1.2c0,0.7-0.2,1.1-0.6,1.5c-0.6,0.7-1.4,0.8-1.9,0.8s-0.9-0.1-1.4-0.5c-0.4-0.3-0.7-0.8-0.8-1.3l1-0.4
			c0.1,0.3,0.2,0.6,0.4,0.8s0.5,0.3,0.8,0.3c0.2,0,0.6,0,0.9-0.3c0.2-0.2,0.4-0.6,0.4-0.8s-0.1-0.5-0.4-0.7
			c-0.1-0.1-0.5-0.3-0.7-0.4l-0.4-0.2c-0.3-0.1-0.7-0.4-0.8-0.7c-0.3-0.3-0.4-0.7-0.4-1c0-0.7,0.3-1,0.6-1.4c0.5-0.5,1-0.6,1.5-0.6
			c0.4,0,0.8,0.1,1.2,0.4c0.3,0.2,0.5,0.5,0.7,0.8L229.8,140.2z"/>
		<path class="st0" d="M232.3,144.2c0.2-0.2,0.4-0.3,0.7-0.3c0.2,0,0.4,0.1,0.6,0.2c0.1,0.1,0.2,0.3,0.2,0.6c0,0.2-0.1,0.4-0.3,0.7
			c-0.2,0.2-0.4,0.2-0.6,0.2c-0.3,0-0.5-0.1-0.6-0.2c-0.1-0.1-0.2-0.3-0.2-0.5C232,144.5,232.2,144.3,232.3,144.2z"/>
		<path class="st0" d="M246.2,142.4h-4.6l-1.7,3h-1.3l6.3-11.3l3.5,11.3H247L246.2,142.4z M245.8,141.3l-1.3-4.3l-2.4,4.3H245.8z"/>
		<path class="st0" d="M250.4,138.7h1.1l-0.1,0.8c0-0.1,0.3-0.4,0.7-0.7c0.4-0.3,0.8-0.3,1.2-0.3c0.5,0,1.1,0.1,1.6,0.6
			c0.5,0.5,0.6,1,0.6,1.5c0,0.4-0.1,0.8-0.1,1.1l-0.5,3.7h-1.1l0.4-3.4c0-0.3,0.1-0.8,0.1-1.1c0-0.3,0-0.7-0.4-1
			c-0.2-0.2-0.5-0.4-0.9-0.4s-0.9,0.2-1.2,0.5c-0.5,0.5-0.6,1.2-0.7,1.9l-0.5,3.5h-1.1L250.4,138.7z"/>
		<path class="st0" d="M263.8,133.6h1.1l-1.4,11.8h-1.1l0.1-0.9c-0.3,0.4-0.6,0.7-0.9,0.8s-0.8,0.3-1.3,0.3c-0.8,0-1.4-0.2-2.1-0.8
			c-0.5-0.5-0.9-1.3-0.9-2.5c0-1,0.5-2.3,1.1-2.9c0.6-0.6,1.4-0.9,2.4-0.9c0.4,0,1,0.1,1.4,0.3c0.3,0.2,0.7,0.5,0.8,0.8L263.8,133.6
			z M259.2,140.1c-0.5,0.4-0.8,1.1-0.8,2.1c0,0.8,0.4,1.4,0.7,1.7c0.5,0.5,0.9,0.6,1.5,0.6c0.5,0,1-0.1,1.6-0.6
			c0.6-0.6,0.8-1.4,0.8-2.1s-0.2-1.3-0.7-1.7c-0.4-0.5-0.9-0.6-1.4-0.6C260.2,139.6,259.7,139.7,259.2,140.1z"/>
		<path class="st0" d="M271.7,144.7l-2.4-6.1h1.3l1.8,4.8l2.8-4.8h1.3l-6.2,10.5H269L271.7,144.7z"/>
		<path class="st0" d="M283.2,143.7c-0.3,0.5-0.8,1-1.2,1.4c-0.7,0.5-1.4,0.5-2,0.5c-0.8,0-1.5-0.2-2.3-0.8
			c-0.4-0.4-0.8-1.1-0.8-2.5c0-1.1,0.5-2.2,1.1-2.9c0.7-0.7,1.4-0.9,2.4-0.9c1.1,0,1.8,0.4,2.2,0.8c0.5,0.5,0.9,1.4,0.8,2.9h-5.2
			c0,0.9,0.3,1.5,0.6,1.8c0.4,0.4,0.8,0.5,1.3,0.5c0.4,0,0.8-0.1,1.3-0.4c0.4-0.3,0.7-0.7,0.8-1L283.2,143.7z M282.2,141.3
			c0-0.5-0.2-1-0.6-1.3c-0.4-0.4-0.8-0.4-1.2-0.4c-0.6,0-1,0.2-1.5,0.6c-0.3,0.3-0.6,0.8-0.7,1.2L282.2,141.3L282.2,141.3z"/>
		<path class="st0" d="M286.7,139.7l-0.7,5.7h-1.1l0.7-5.7h-0.8l0.1-1h0.8l0.3-2.5h1.1l-0.3,2.5h1.1l-0.1,1H286.7z"/>
		<path class="st0" d="M293.1,138.7l1.4,4.5l2.7-5.1l1.4,5.1l2.5-4.5h1.3l-4.2,7.2l-1.4-5l-2.7,5l-2.5-7.2H293.1z"/>
		<path class="st0" d="M309.3,143.7c-0.3,0.5-0.8,1-1.2,1.4c-0.7,0.5-1.4,0.5-2,0.5c-0.8,0-1.5-0.2-2.3-0.8
			c-0.4-0.4-0.8-1.1-0.8-2.5c0-1.1,0.5-2.2,1.1-2.9c0.7-0.7,1.4-0.9,2.4-0.9c1.1,0,1.8,0.4,2.2,0.8c0.5,0.5,0.9,1.4,0.8,2.9h-5.2
			c0,0.9,0.3,1.5,0.6,1.8c0.4,0.4,0.8,0.5,1.3,0.5c0.4,0,0.8-0.1,1.3-0.4c0.4-0.3,0.7-0.7,0.8-1L309.3,143.7z M308.4,141.3
			c0-0.5-0.2-1-0.6-1.3c-0.4-0.4-0.8-0.4-1.2-0.4c-0.6,0-1,0.2-1.5,0.6c-0.3,0.3-0.6,0.8-0.7,1.2L308.4,141.3L308.4,141.3z"/>
		<path class="st0" d="M315.7,138.7l1.4,4.5l2.7-5.1l1.4,5.1l2.5-4.5h1.3l-4.2,7.2l-1.4-5l-2.7,5l-2.5-7.2H315.7z"/>
		<path class="st0" d="M331.7,138.7h1.1l-0.8,6.7h-1.1l0.1-0.9c-0.2,0.3-0.5,0.6-0.8,0.8c-0.5,0.3-0.9,0.4-1.4,0.4
			c-0.8,0-1.5-0.2-2.2-0.8c-0.5-0.6-0.8-1.3-0.8-2.4c0-1.4,0.6-2.4,1.1-3c0.7-0.6,1.4-0.8,2.5-0.8c0.5,0,0.9,0.1,1.4,0.3
			c0.4,0.2,0.7,0.5,0.8,0.8L331.7,138.7z M327.7,140.2c-0.5,0.5-0.8,1.3-0.8,2.1c0,0.7,0.3,1.3,0.7,1.8c0.4,0.4,0.8,0.5,1.3,0.5
			c0.8,0,1.3-0.3,1.7-0.7c0.5-0.5,0.8-1.3,0.8-2.2c0-0.9-0.4-1.4-0.7-1.6c-0.3-0.3-0.8-0.6-1.4-0.6
			C328.6,139.6,328.1,139.8,327.7,140.2z"/>
		<path class="st0" d="M336.9,133.6l-1.4,11.8h-1.1l1.4-11.8H336.9z"/>
		<path class="st0" d="M340.2,133.6l-0.9,7.6l2.7-2.5h1.5l-3.3,2.9l2.9,3.9h-1.4l-2.4-3l-0.3,0.3l-0.4,2.7h-1.1l1.4-11.8
			L340.2,133.6L340.2,133.6z"/>
		<path class="st0" d="M349.1,144.6c-0.5-0.5-0.8-1.2-0.8-2.4c0-0.9,0.3-2,1.2-2.8c0.8-0.7,1.6-1,2.6-1c1.1,0,1.9,0.4,2.5,0.9
			c0.7,0.7,0.8,1.5,0.8,2.2c0,1.4-0.6,2.4-1.1,2.9c-0.8,0.8-1.9,1-2.8,1C350.5,145.6,349.7,145.3,349.1,144.6z M350.2,140.3
			c-0.6,0.6-0.8,1.3-0.8,2.1c0,0.8,0.3,1.2,0.6,1.5c0.3,0.3,0.8,0.7,1.5,0.7c0.8,0,1.4-0.4,1.8-0.8c0.5-0.6,0.8-1.3,0.8-2.1
			c0-0.7-0.3-1.2-0.6-1.5c-0.4-0.4-0.8-0.7-1.5-0.7C351.6,139.6,350.9,139.6,350.2,140.3z"/>
		<path class="st0" d="M357.6,138.7h1.1v0.8c0-0.1,0.3-0.4,0.7-0.7c0.4-0.3,0.8-0.3,1.2-0.3c0.5,0,1.1,0.1,1.6,0.6s0.6,1,0.6,1.5
			c0,0.4-0.1,0.8-0.1,1.1l-0.5,3.7H361l0.4-3.4c0-0.3,0.1-0.8,0.1-1.1c0-0.3,0-0.7-0.4-1c-0.2-0.2-0.5-0.4-0.9-0.4s-0.9,0.2-1.2,0.5
			c-0.5,0.5-0.6,1.2-0.7,1.9l-0.5,3.5h-1.1L357.6,138.7z"/>
		<path class="st0" d="M364.9,143.8l1,0.4l-2.1,3.7l-0.8-0.3L364.9,143.8z"/>
		<path class="st0" d="M374.3,133.6l-1.4,11.8h-1.1l1.4-11.8H374.3z"/>
		<path class="st0" d="M375.9,144.6c-0.5-0.5-0.8-1.2-0.8-2.4c0-0.9,0.3-2,1.2-2.8c0.8-0.7,1.6-1,2.6-1c1.1,0,1.9,0.4,2.5,0.9
			c0.7,0.7,0.8,1.5,0.8,2.2c0,1.4-0.6,2.4-1.1,2.9c-0.8,0.8-1.9,1-2.8,1C377.3,145.6,376.5,145.3,375.9,144.6z M377,140.3
			c-0.6,0.6-0.8,1.3-0.8,2.1c0,0.8,0.3,1.2,0.6,1.5c0.3,0.3,0.8,0.7,1.5,0.7c0.8,0,1.4-0.4,1.8-0.8c0.5-0.6,0.8-1.3,0.8-2.1
			c0-0.7-0.3-1.2-0.6-1.5c-0.4-0.4-0.8-0.7-1.5-0.7C378.4,139.6,377.7,139.6,377,140.3z"/>
		<path class="st0" d="M384.4,144.6c-0.5-0.5-0.8-1.2-0.8-2.4c0-0.9,0.3-2,1.2-2.8c0.8-0.7,1.6-1,2.6-1c1.1,0,1.9,0.4,2.5,0.9
			c0.7,0.7,0.8,1.5,0.8,2.2c0,1.4-0.6,2.4-1.1,2.9c-0.8,0.8-1.9,1-2.8,1C385.9,145.6,385,145.3,384.4,144.6z M385.6,140.3
			c-0.6,0.6-0.8,1.3-0.8,2.1c0,0.8,0.3,1.2,0.6,1.5c0.3,0.3,0.8,0.7,1.5,0.7c0.8,0,1.4-0.4,1.8-0.8c0.5-0.6,0.8-1.3,0.8-2.1
			c0-0.7-0.3-1.2-0.6-1.5c-0.4-0.4-0.8-0.7-1.5-0.7C387,139.6,386.2,139.6,385.6,140.3z"/>
		<path class="st0" d="M394.7,133.6l-0.9,7.6l2.7-2.5h1.5l-3.3,2.9l2.9,3.9h-1.5l-2.4-3l-0.3,0.3l-0.4,2.7H392l1.4-11.8L394.7,133.6
			L394.7,133.6z"/>
		<path class="st0" d="M401,138.7l-0.8,6.7H399l0.8-6.7H401z M400,135.6c0.1-0.2,0.4-0.3,0.7-0.3c0.2,0,0.4,0.1,0.5,0.2
			c0.2,0.2,0.2,0.3,0.2,0.6c0,0.3-0.1,0.5-0.3,0.7s-0.5,0.3-0.7,0.3c-0.2,0-0.4-0.1-0.6-0.2c-0.1-0.1-0.2-0.3-0.2-0.5
			C399.8,136,399.9,135.8,400,135.6z"/>
		<path class="st0" d="M403.1,138.7h1.1l-0.1,0.8c0-0.1,0.3-0.4,0.7-0.7c0.4-0.3,0.8-0.3,1.2-0.3c0.5,0,1.1,0.1,1.6,0.6
			c0.5,0.5,0.6,1,0.6,1.5c0,0.4-0.1,0.8-0.1,1.1l-0.5,3.7h-1.1l0.4-3.4c0-0.3,0.1-0.8,0.1-1.1c0-0.3,0-0.7-0.4-1
			c-0.2-0.2-0.5-0.4-0.9-0.4s-0.9,0.2-1.2,0.5c-0.5,0.5-0.6,1.2-0.7,1.9l-0.5,3.5h-1.1L403.1,138.7z"/>
		<path class="st0" d="M415.9,138.7h1.1l-0.8,6.5c-0.1,1-0.3,2.1-1,2.9c-0.5,0.5-1.2,0.9-2.6,0.9c-1.1,0-1.9-0.4-2.3-0.8
			c-0.8-0.8-0.8-1.8-0.8-2.2v-0.1h1.1v0.1c0,0.5,0.1,1,0.6,1.5c0.4,0.4,0.9,0.5,1.4,0.5c0.8,0,1.4-0.3,1.7-0.6
			c0.6-0.6,0.7-1.4,0.8-2.1l0.1-0.9c-0.2,0.2-0.5,0.6-0.9,0.8c-0.4,0.2-0.8,0.3-1.3,0.3c-0.9,0-1.7-0.3-2.3-0.8
			c-0.7-0.8-0.8-1.6-0.8-2.3c0-1,0.4-2.3,1-2.9c0.5-0.5,1.2-0.9,2.5-0.9c0.4,0,0.9,0,1.5,0.3c0.3,0.2,0.6,0.4,0.8,0.8L415.9,138.7z
			 M411.9,140.1c-0.6,0.5-0.8,1.3-0.8,2.2c0,0.8,0.3,1.3,0.6,1.7c0.4,0.4,0.8,0.6,1.4,0.6c0.8,0,1.3-0.3,1.7-0.6
			c0.6-0.6,0.8-1.5,0.8-2.3c0-0.6-0.2-1.2-0.6-1.6c-0.3-0.3-0.8-0.6-1.4-0.6S412.4,139.7,411.9,140.1z"/>
		<path class="st0" d="M423.3,145.4h-1.1l1.4-11.8h1.1l-0.8,6c0.2-0.3,0.6-0.6,0.8-0.8c0.4-0.2,0.8-0.3,1.3-0.3
			c0.8,0,1.6,0.2,2.2,0.8c0.8,0.8,0.8,1.7,0.8,2.3c0,1.2-0.4,2.4-1.1,3c-0.8,0.8-1.6,0.9-2.5,0.9c-0.5,0-0.9-0.1-1.5-0.4
			c-0.5-0.3-0.8-0.7-0.8-0.8L423.3,145.4z M427.3,143.9c0.6-0.6,0.8-1.5,0.8-2.2s-0.3-1.3-0.7-1.6c-0.4-0.4-0.8-0.6-1.4-0.6
			c-0.5,0-1,0.1-1.6,0.7c-0.5,0.5-0.8,1.3-0.8,2.1s0.3,1.3,0.7,1.8c0.3,0.3,0.8,0.6,1.4,0.6C426.4,144.6,427,144.3,427.3,143.9z"/>
		<path class="st0" d="M436.7,138.7h1.1l-0.8,6.7h-1.1l0.1-0.9c-0.2,0.3-0.5,0.6-0.8,0.8c-0.5,0.3-0.9,0.4-1.4,0.4
			c-0.8,0-1.5-0.2-2.2-0.8c-0.5-0.6-0.8-1.3-0.8-2.4c0-1.4,0.6-2.4,1.1-3c0.7-0.6,1.4-0.8,2.5-0.8c0.5,0,0.9,0.1,1.4,0.3
			c0.4,0.2,0.7,0.5,0.8,0.8L436.7,138.7z M432.8,140.2c-0.5,0.5-0.8,1.3-0.8,2.1c0,0.7,0.3,1.3,0.7,1.8c0.4,0.4,0.8,0.5,1.3,0.5
			c0.8,0,1.3-0.3,1.7-0.7c0.5-0.5,0.8-1.3,0.8-2.2c0-0.9-0.4-1.4-0.7-1.6c-0.3-0.3-0.8-0.6-1.4-0.6
			C433.6,139.6,433.1,139.8,432.8,140.2z"/>
		<path class="st0" d="M445.1,140.5c-0.2-0.3-0.6-0.6-0.8-0.8c-0.3-0.2-0.8-0.3-1.2-0.3c-0.8,0-1.3,0.3-1.8,0.7
			c-0.5,0.4-0.8,1-0.8,2.1c0,0.8,0.4,1.4,0.7,1.7c0.5,0.5,1,0.6,1.5,0.6s0.8-0.1,1.2-0.3c0.5-0.2,0.8-0.5,0.9-0.8l-0.2,1.4
			c-0.3,0.3-0.7,0.4-0.9,0.5c-0.4,0.1-0.8,0.2-1.2,0.2c-0.8,0-1.7-0.2-2.4-0.8c-0.6-0.6-0.8-1.4-0.8-2.4c0-1,0.4-2.1,1.1-2.8
			c0.5-0.5,1.3-1,2.7-1c0.7,0,1.5,0.2,2.2,0.7L445.1,140.5z"/>
		<path class="st0" d="M449,133.6l-0.9,7.6l2.7-2.5h1.5l-3.3,2.9l2.9,3.9h-1.5l-2.4-3l-0.3,0.3l-0.4,2.7h-0.9l1.4-11.8L449,133.6
			L449,133.6z"/>
		<path class="st0" d="M453.4,144.2c0.2-0.2,0.4-0.3,0.7-0.3c0.2,0,0.4,0.1,0.6,0.2c0.1,0.1,0.2,0.3,0.2,0.6c0,0.2-0.1,0.4-0.3,0.7
			c-0.2,0.2-0.4,0.2-0.6,0.2c-0.3,0-0.5-0.1-0.6-0.2c-0.1-0.1-0.2-0.3-0.2-0.5C453.2,144.5,453.3,144.3,453.4,144.2z"/>
	</g>
	<path class="st0" d="M201.5,80.9c9.1-2.3,17.6-5.9,26-10.1c10-5.4,21.4-11.7,33.1-7.9c6.6,2.2,12.8,5.8,19.8,6.5
		c4.6,0.7,9.2,0.8,13.9,0.3c4.6-0.6,9.1-1.9,13.6-3.2l0.2,0.6c-8.9,2.7-18.3,4.4-27.7,2.7c-9.3-0.9-17.3-7.5-26.7-7.6
		c-9.5-0.3-17.8,4.8-26,9.1c-4.2,2.2-8.3,4.2-12.6,6c-4.3,1.8-8.8,3.3-13.2,4.6L201.5,80.9L201.5,80.9z"/>
	<path class="st0" d="M445.1,52.8c-2.9,2.6-4.3,6.8-2.9,10.5c1.3,4,5.9,5,9.6,4.8c7.9-0.6,15.3-4,22.2-7.6c7-3.7,13.6-8,20-12.6
		c6.4-4.5,12.6-9.4,19-14.3l0.4,0.5c-6.2,4.8-12.5,9.7-19,14.3c-6.4,4.7-13,9.1-20,12.7c-7,3.6-14.4,7-22.5,7.6
		c-7,0.6-12.2-3.8-10.4-11.1c0.6-2,1.8-3.7,3.3-5C444.9,52.4,445.1,52.8,445.1,52.8L445.1,52.8z"/>
</g>
</svg>
